<?xml version="1.0" standalone="no"?>
<!DOCTYPE svg PUBLIC "-//W3C//DTD SVG 1.1//EN" "http://www.w3.org/Graphics/SVG/1.1/DTD/svg11.dtd" >
<svg xmlns="http://www.w3.org/2000/svg">
<metadata>Generated by IcoMoon</metadata>
<defs>
<font id="icomoon" horiz-adv-x="1024">
<font-face units-per-em="1024" ascent="960" descent="-64" />
<missing-glyph horiz-adv-x="1024" />
<glyph unicode="&#x20;" horiz-adv-x="512" d="" />
<glyph unicode="&#xe900;" glyph-name="button-circlecheck" d="M512-64c-282.77 0-512 229.23-512 512s229.23 512 512 512c282.77 0 512-229.23 512-512v0c-0.466-282.583-229.418-511.535-511.956-512h-0.044zM512 857.6c-226.216 0-409.6-183.384-409.6-409.6s183.384-409.6 409.6-409.6c226.216 0 409.6 183.384 409.6 409.6v0c0 226.216-183.384 409.6-409.6 409.6v0zM458.752 249.754c-0.008 0-0.017 0-0.026 0-14.11 0-26.864 5.8-36.010 15.146l-147.055 147.055c-8.028 9-12.934 20.935-12.934 34.017 0 28.277 22.923 51.2 51.2 51.2 13.183 0 25.203-4.983 34.278-13.168l-0.045 0.040 110.592-110.592 253.133 252.723c9 8.028 20.935 12.934 34.017 12.934 28.277 0 51.2-22.923 51.2-51.2 0-13.183-4.983-25.203-13.168-34.278l0.040 0.045-286.72-286.72c-9.422-10.576-23.079-17.204-38.284-17.204-0.077 0-0.153 0-0.23 0.001h0.012z" />
<glyph unicode="&#xe901;" glyph-name="button-close" d="M921.6-64c-28.253 0.106-53.81 11.561-72.366 30.041l-819.196 819.196c-17.028 18.237-27.483 42.802-27.483 69.808 0 56.554 45.846 102.4 102.4 102.4 27.007 0 51.571-10.455 69.868-27.538l-0.060 0.055 819.2-819.2c18.67-18.45 30.233-44.056 30.233-72.363s-11.563-53.913-30.223-72.353l-0.010-0.010c-18.553-18.476-44.11-29.932-72.342-30.037h-0.020zM102.4-64c-56.515 0.051-102.31 45.878-102.31 102.4 0 28.255 11.443 53.836 29.948 72.364l819.199 819.199c18.237 17.028 42.802 27.483 69.808 27.483 56.554 0 102.4-45.846 102.4-102.4 0-27.007-10.455-51.571-27.538-69.868l0.055 0.060-819.2-819.2c-18.431-18.554-43.959-30.038-72.169-30.038-0.068 0-0.136 0-0.204 0h0.011z" />
<glyph unicode="&#xe902;" glyph-name="button-delete" horiz-adv-x="895" d="M628.265-64h-356.518c-113.455 0.225-205.367 92.137-205.592 205.571v580.751c0.43 35.866 29.167 64.881 64.884 65.756l0.082 0.002h619.154c43.755 0 79.226-35.471 79.226-79.226v0-570.429c0-0.001 0-0.002 0-0.003 0-111.377-89.952-201.745-201.171-202.419h-0.064zM143.796 708.853v-566.864c0-0.118-0.001-0.257-0.001-0.396 0-69.79 56.576-126.366 126.366-126.366 0 0 0 0 0.001 0h356.518c0.707-0.015 1.541-0.023 2.377-0.023 68.127 0 123.38 55.122 123.592 123.199v569.261zM855.644 708.853h-816.031c-21.878 0-39.613 17.735-39.613 39.613s17.735 39.613 39.613 39.613v0h816.031c21.878 0 39.613-17.735 39.613-39.613s-17.735-39.613-39.613-39.613v0zM572.806 730.64h-250.355c0 0-0.001 0-0.001 0-35.74 0-64.74 28.861-64.964 64.548v100.242c0.225 35.709 29.224 64.569 64.964 64.569 0 0 0.001 0 0.001 0h250.355c35.661 0 64.569-28.909 64.569-64.569v0-100.221c0-35.661-28.909-64.569-64.569-64.569v0zM335.127 809.866h221.438v70.908h-219.853zM572.806 880.774v0zM277.292 128.124c-21.878 0-39.613 17.735-39.613 39.613v0 387.813c0 21.878 17.735 39.613 39.613 39.613s39.613-17.735 39.613-39.613v0-387.813c0-21.878-17.735-39.613-39.613-39.613v0zM447.629 128.124c-21.878 0-39.613 17.735-39.613 39.613v0 387.813c0 21.878 17.735 39.613 39.613 39.613s39.613-17.735 39.613-39.613v0-387.813c0-21.878-17.735-39.613-39.613-39.613v0zM619.154 128.124c-21.878 0-39.613 17.735-39.613 39.613v0 387.813c0 21.878 17.735 39.613 39.613 39.613s39.613-17.735 39.613-39.613v0-387.813c0-21.878-17.735-39.613-39.613-39.613v0z" />
<glyph unicode="&#xe903;" glyph-name="button-edit" horiz-adv-x="1021" d="M1002.611 687.958l-254.663 252.658c-12.076 11.981-28.709 19.385-47.070 19.385-0.136 0-0.272 0-0.407-0.001h0.021c-18.384-0.6-34.964-7.86-47.507-19.43l0.051 0.046-586.193-589.535c-9.654-9.669-16.363-22.282-18.663-36.377l-0.052-0.386-48.125-300.783c-0.348-2.562-0.547-5.524-0.547-8.532 0-18.633 7.624-35.485 19.923-47.606l0.008-0.008c12.341-11.784 29.017-19.119 47.405-19.383l0.052-0.001h10.695l300.115 48.125c14.48 2.352 27.093 9.061 36.763 18.716l-0.001-0.001 588.198 588.867c12.012 12.082 19.437 28.735 19.437 47.123s-7.425 35.041-19.44 47.126l0.003-0.003zM334.204 113.796l-187.822-30.078 29.41 188.491 362.277 362.945 158.413-158.413zM790.057 570.987l-157.744 159.081 66.841 66.841 159.081-158.413z" />
<glyph unicode="&#xe904;" glyph-name="button-filter" horiz-adv-x="1093" d="M274.871 627.864c-0.155-0.001-0.338-0.001-0.521-0.001-91.717 0-166.068 74.351-166.068 166.068s74.351 166.068 166.068 166.068c91.717 0 166.068-74.351 166.068-166.067v0c0 0 0-0.001 0-0.001 0-91.534-74.055-165.771-165.519-166.067h-0.028zM274.871 855.882c-0.155 0.001-0.338 0.002-0.521 0.002-34.214 0-61.95-27.736-61.95-61.95s27.736-61.95 61.95-61.95c34.213 0 61.949 27.735 61.95 61.948v0c0 0.001 0 0.001 0 0.002 0 34.031-27.44 61.653-61.402 61.948h-0.028zM559.113 287.919c-91.717 0-166.068 74.351-166.068 166.068s74.351 166.068 166.068 166.068c91.717 0 166.068-74.351 166.068-166.068v0c0-91.717-74.351-166.068-166.068-166.068v0zM559.113 515.937c-34.214 0-61.95-27.736-61.95-61.95s27.736-61.95 61.95-61.95v0c34.214 0 61.95 27.736 61.95 61.95s-27.736 61.95-61.95 61.95v0zM843.355-64c-91.717 0-166.067 74.352-166.067 166.068s74.351 166.068 166.068 166.068c91.717 0 166.068-74.351 166.068-166.068 0-0.183 0-0.366-0.001-0.549v0.028c0 0 0-0.001 0-0.001 0-91.429-74.118-165.548-165.548-165.548-0.183 0-0.366 0-0.549 0.001h0.028zM843.355 163.498c-34.214 0-61.95-27.736-61.95-61.95s27.736-61.95 61.95-61.95c34.214 0 61.95 27.736 61.95 61.95v0c0 34.214-27.736 61.95-61.95 61.95v0zM1041.179 741.873h-667.396c-28.751 0-52.059 23.308-52.059 52.059s23.308 52.059 52.059 52.059v0h667.396c28.751 0 52.059-23.308 52.059-52.059s-23.308-52.059-52.059-52.059v0zM178.562 741.873h-126.503c-28.751 0-52.059 23.308-52.059 52.059s23.308 52.059 52.059 52.059v0h126.503c28.751 0 52.059-23.308 52.059-52.059s-23.308-52.059-52.059-52.059v0zM1041.179 401.928h-376.907c-28.751 0-52.059 23.308-52.059 52.059s23.308 52.059 52.059 52.059v0h376.907c28.751 0 52.059-23.308 52.059-52.059s-23.308-52.059-52.059-52.059v0zM460.201 401.928h-408.142c-28.751 0-52.059 23.308-52.059 52.059s23.308 52.059 52.059 52.059v0h408.142c28.751 0 52.059-23.308 52.059-52.059s-23.308-52.059-52.059-52.059v0zM1041.179 49.489h-98.912c-28.751 0-52.059 23.308-52.059 52.059s23.308 52.059 52.059 52.059v0h98.912c28.751 0 52.059-23.308 52.059-52.059s-23.308-52.059-52.059-52.059v0zM735.073 49.489h-683.014c-28.751 0-52.059 23.308-52.059 52.059s23.308 52.059 52.059 52.059v0h683.014c28.751 0 52.059-23.308 52.059-52.059s-23.308-52.059-52.059-52.059v0z" />
<glyph unicode="&#xe905;" glyph-name="button-information" d="M512-64c-0.028 0-0.062 0-0.095 0-282.77 0-512 229.23-512 512 0 141.408 57.327 269.428 150.008 362.085l0.001 0.001c92.666 92.666 220.683 149.981 362.086 149.981 282.807 0 512.067-229.26 512.067-512.067 0-141.404-57.315-269.42-149.981-362.086v0c-92.151-92.606-219.699-149.916-360.633-149.916-0.511 0-1.022 0.001-1.533 0.002h0.080zM523.469 550.4c-0.204 0.004-0.444 0.006-0.685 0.006-9.508 0-18.259-3.24-25.21-8.675l0.090 0.068c-6.116-5.766-9.924-13.922-9.924-22.967 0-0.854 0.034-1.701 0.101-2.538l-0.007 0.11v-221.184c-0.080-0.841-0.125-1.819-0.125-2.808 0-9.061 3.821-17.229 9.939-22.982l0.016-0.015c7.098-5.37 16.074-8.602 25.805-8.602s18.707 3.232 25.913 8.68l-0.108-0.078c6.344 6.054 10.288 14.575 10.288 24.017 0 0.629-0.017 1.254-0.052 1.874l0.004-0.086v221.184c0.019 0.417 0.029 0.905 0.029 1.396 0 9.433-3.937 17.947-10.257 23.987l-0.013 0.012c-6.861 5.368-15.612 8.607-25.12 8.607-0.241 0-0.481-0.002-0.721-0.006h0.036zM523.469 677.376c-1.149 0.115-2.484 0.18-3.834 0.18-10.504 0-20.084-3.954-27.334-10.454l0.039 0.034c-7.076-6.466-11.497-15.734-11.497-26.035 0-0.495 0.010-0.988 0.030-1.479l-0.002 0.070c-0.019-0.435-0.029-0.945-0.029-1.458 0-10.413 4.416-19.795 11.477-26.375l0.022-0.020c8.444-6.615 19.218-10.608 30.925-10.608s22.481 3.993 31.035 10.691l-0.11-0.083c7.086 6.467 11.515 15.742 11.515 26.051 0 0.634-0.017 1.264-0.050 1.889l0.004-0.087c0.018 0.42 0.028 0.913 0.028 1.409 0 10.301-4.421 19.569-11.47 26.010l-0.027 0.024c-7.873 6.396-18.020 10.269-29.072 10.269-0.58 0-1.157-0.011-1.731-0.032l0.083 0.002z" />
<glyph unicode="&#xe906;" glyph-name="button-left" horiz-adv-x="592" d="M512.317-64c-0.001 0-0.002 0-0.004 0-21.938 0-41.842 8.704-56.449 22.847l0.022-0.021-432.426 430.524c-14.54 14.278-23.552 34.143-23.552 56.114s9.012 41.836 23.54 56.102l0.012 0.012 432.426 434.962c14.558 14.96 34.886 24.241 57.382 24.241 44.203 0 80.037-35.834 80.037-80.037 0-21.708-8.642-41.397-22.673-55.815l0.018 0.018-380.433-377.263 380.433-375.361c14.197-14.318 22.97-34.034 22.97-55.798 0-43.6-35.206-78.978-78.741-79.255h-0.027z" />
<glyph unicode="&#xe907;" glyph-name="button-one" d="M512-64c-282.77 0-512 229.23-512 512s229.23 512 512 512c282.77 0 512-229.23 512-512v0c-0.466-282.583-229.418-511.535-511.956-512h-0.044zM512 857.6c-226.216 0-409.6-183.384-409.6-409.6s183.384-409.6 409.6-409.6c226.216 0 409.6 183.384 409.6 409.6v0c0 226.216-183.384 409.6-409.6 409.6v0zM564.429 263.68h-86.426v318.669c-14.746-14.336-24.576-23.757-30.31-28.262l-46.694-37.683-40.96 52.019 133.53 104.858h70.861z" />
<glyph unicode="&#xe908;" glyph-name="button-option" horiz-adv-x="5123" d="M1024 448c0-282.77-229.23-512-512-512s-512 229.23-512 512c0 282.77 229.23 512 512 512s512-229.23 512-512zM3072 448c0-282.77-229.23-512-512-512s-512 229.23-512 512c0 282.77 229.23 512 512 512s512-229.23 512-512zM5123.048 448c0-282.77-229.23-512-512-512s-512 229.23-512 512c0 282.77 229.23 512 512 512s512-229.23 512-512z" />
<glyph unicode="&#xe909;" glyph-name="button-question" d="M512-64c-0.028 0-0.062 0-0.095 0-282.77 0-512 229.23-512 512 0 141.408 57.327 269.428 150.008 362.085l0.001 0.001c92.666 92.666 220.683 149.981 362.086 149.981 282.807 0 512.067-229.26 512.067-512.067 0-141.404-57.315-269.42-149.981-362.086v0c-92.151-92.606-219.699-149.916-360.633-149.916-0.511 0-1.022 0.001-1.533 0.002h0.080zM536.576 345.6c-22.622 0-40.96-18.338-40.96-40.96v0c-0.026-0.548-0.041-1.189-0.041-1.835 0-11.272 4.553-21.481 11.921-28.887l-0.002 0.002c7.442-7.601 17.809-12.313 29.276-12.313 0.508 0 1.013 0.009 1.517 0.028l-0.073-0.002c0.192-0.003 0.418-0.005 0.645-0.005 11.457 0 21.816 4.704 29.25 12.286l0.007 0.007c7.601 7.442 12.313 17.809 12.313 29.276 0 0.508-0.009 1.013-0.028 1.517l0.002-0.073c0 22.622-18.338 40.96-40.96 40.96v0zM539.443 613.478c1.174 0.085 2.543 0.133 3.923 0.133 12.856 0 24.73-4.2 34.326-11.303l-0.157 0.111c8.528-6.888 13.936-17.344 13.936-29.063 0-0.295-0.003-0.588-0.010-0.881l0.001 0.043c0.007-0.334 0.011-0.729 0.011-1.124 0-11.068-3.048-21.424-8.352-30.274l0.149 0.268c-7.979-12.997-16.22-24.235-25.276-34.751l0.29 0.345c-12.357-13.941-23.482-29.503-32.887-46.166l-0.7-1.348c-7.249-15.001-11.486-32.623-11.486-51.234 0-0.708 0.006-1.415 0.018-2.12l-0.001 0.106c-0.016-0.359-0.024-0.779-0.024-1.202 0-6.829 2.321-13.116 6.218-18.115l-0.049 0.066c3.618-4.055 8.858-6.595 14.692-6.595 0.451 0 0.899 0.015 1.343 0.045l-0.060-0.003c0.431-0.029 0.934-0.045 1.442-0.045 5.168 0 9.937 1.709 13.773 4.593l-0.059-0.042c4.116 3.537 6.857 8.574 7.367 14.254l0.006 0.082c2.193 13.98 7.395 26.442 14.931 37.142l-0.185-0.278c11.42 15.090 22.961 28.449 35.293 41.029l-0.067-0.069c15.061 14.732 28.551 30.953 40.267 48.462l0.693 1.1c8.78 13.584 13.999 30.183 13.999 48.001 0 1.269-0.026 2.532-0.079 3.788l0.006-0.18c0.011 0.494 0.017 1.076 0.017 1.659 0 17.812-5.685 34.297-15.339 47.738l0.167-0.245c-10.386 14.436-24.223 25.775-40.331 32.928l-0.629 0.249c-18.072 8.027-39.154 12.7-61.328 12.7-0.328 0-0.655-0.001-0.982-0.003h0.050c-23.67-0.122-46.322-4.314-67.346-11.911l1.401 0.442c-21.916-7.831-40.823-18.954-57.177-32.971l0.242 0.203c-8.272-6.188-13.569-15.961-13.569-26.97 0-7.772 2.64-14.928 7.072-20.619l-0.056 0.075c3.82-5.474 10.089-9.011 17.184-9.011 0.007 0 0.014 0 0.021 0h-0.001c8.771 0.93 16.707 3.858 23.553 8.317l-0.205-0.125c12.619 8.718 27.114 17.173 42.245 24.522l1.992 0.873c11.492 5.441 24.968 8.618 39.185 8.618 0.624 0 1.247-0.006 1.868-0.018l-0.093 0.001z" />
<glyph unicode="&#xe90a;" glyph-name="button-right" horiz-adv-x="592" d="M79.257-64c-0.237-0.003-0.518-0.004-0.799-0.004-43.772 0-79.257 35.485-79.257 79.257 0 22.401 9.293 42.632 24.235 57.046l0.024 0.023 376.629 375.361-376.629 377.263c-14.28 14.28-23.112 34.007-23.112 55.797 0 43.58 35.329 78.909 78.909 78.909 21.79 0 41.517-8.832 55.797-23.112v0l435.596-432.426c15.327-14.383 24.875-34.767 24.875-57.382s-9.548-42.999-24.832-57.343l-0.042-0.039-435.596-430.524c-14.208-14.108-33.782-22.827-55.393-22.827-0.142 0-0.284 0-0.426 0.001h0.022z" />
<glyph unicode="&#xe90b;" glyph-name="button-three" d="M512-64c-282.77 0-512 229.23-512 512s229.23 512 512 512c282.77 0 512-229.23 512-512v0c-0.466-282.583-229.418-511.535-511.956-512h-0.044zM512 857.6c-226.216 0-409.6-183.384-409.6-409.6s183.384-409.6 409.6-409.6c226.216 0 409.6 183.384 409.6 409.6v0c0 226.216-183.384 409.6-409.6 409.6v0zM661.914 581.53c0.027-0.847 0.043-1.844 0.043-2.844 0-23.902-8.863-45.735-23.482-62.39l0.092 0.107c-16.876-18.411-39.153-31.622-64.314-37.125l-0.813-0.149c28.75-2.003 54.611-12.962 75.17-30.073l-0.213 0.173c15.733-15.531 25.479-37.095 25.479-60.935 0-1.33-0.030-2.653-0.090-3.968l0.007 0.187c0.115-1.876 0.18-4.068 0.18-6.276 0-34.498-15.973-65.265-40.927-85.309l-0.213-0.166c-30.872-21.041-68.991-33.596-110.043-33.596-4.517 0-8.998 0.152-13.439 0.451l0.601-0.032c-1.673-0.034-3.646-0.053-5.623-0.053-40.657 0-79.411 8.148-114.718 22.9l1.967-0.729v72.090c14.867-7.53 32.29-14.242 50.438-19.197l1.991-0.463c16.936-4.596 36.397-7.28 56.47-7.373h0.055c2.306-0.166 4.997-0.261 7.709-0.261 20.495 0 39.725 5.415 56.339 14.891l-0.56-0.294c12.638 9.989 20.674 25.317 20.674 42.523 0 1.613-0.071 3.209-0.209 4.786l0.014-0.204c0.107 1.112 0.168 2.404 0.168 3.71 0 16.445-9.691 30.626-23.673 37.144l-0.252 0.105c-19.010 7.985-41.104 12.623-64.282 12.623-3.756 0-7.483-0.122-11.178-0.362l0.503 0.026h-31.13v65.946h31.539c2.907-0.203 6.299-0.318 9.718-0.318 21.682 0 42.28 4.641 60.855 12.984l-0.941-0.378c13.36 7.882 22.182 22.202 22.182 38.583 0 0.836-0.023 1.667-0.068 2.492l0.005-0.115c0 31.13-19.251 46.694-58.163 46.694-14.706-0.163-28.766-2.699-41.889-7.243l0.929 0.28c-17.803-5.928-33.26-13.703-47.332-23.351l0.638 0.413-40.96 59.392c35.69 25.649 80.269 41.018 128.438 41.018 1.79 0 3.576-0.021 5.356-0.063l-0.264 0.005c2.753 0.157 5.973 0.246 9.215 0.246 33.761 0 65.256-9.702 91.849-26.47l-0.712 0.419c22.356-14.868 36.889-39.953 36.889-68.433 0-0.71-0.009-1.417-0.027-2.123l0.002 0.104z" />
<glyph unicode="&#xe90c;" glyph-name="button-two" d="M512-64c-282.77 0-512 229.23-512 512s229.23 512 512 512c282.77 0 512-229.23 512-512v0c-0.466-282.583-229.418-511.535-511.956-512h-0.044zM512 857.6c-226.216 0-409.6-183.384-409.6-409.6s183.384-409.6 409.6-409.6c226.216 0 409.6 183.384 409.6 409.6v0c0 226.216-183.384 409.6-409.6 409.6v0zM677.888 263.68h-286.72v60.211l103.219 103.629c30.31 31.13 50.381 52.429 59.802 64.717 7.837 9.689 14.568 20.756 19.716 32.666l0.354 0.921c3.868 9.333 6.123 20.17 6.144 31.531v0.008c0.101 1.152 0.159 2.493 0.159 3.847 0 12.894-5.226 24.567-13.676 33.017v0c-8.998 7.645-20.748 12.294-33.585 12.294-0.289 0-0.577-0.002-0.865-0.007l0.043 0.001c-0.184 0.001-0.401 0.002-0.618 0.002-16.632 0-32.346-3.934-46.261-10.922l0.594 0.27c-17.757-9.23-33.069-19.573-47.057-31.429l0.362 0.299-49.152 55.706c14.865 13.129 31.343 25.172 48.878 35.625l1.502 0.83c12.454 6.644 26.908 12.258 42.071 16.095l1.347 0.289c15.293 3.648 32.852 5.74 50.899 5.74 0.538 0 1.076-0.002 1.613-0.006h-0.083c0.731 0.012 1.593 0.019 2.457 0.019 23.732 0 46.264-5.136 66.547-14.356l-1.010 0.411c18.975-9.298 34.415-23.292 45.198-40.502l0.267-0.458c10.282-16.014 16.391-35.558 16.391-56.53 0-0.43-0.003-0.86-0.008-1.289l0.001 0.065c0.004-0.387 0.006-0.844 0.006-1.301 0-18.734-3.766-36.589-10.582-52.849l0.335 0.902c-8.324-19.42-18.631-36.164-31.001-51.141l0.281 0.351c-23.235-26.547-47.181-50.753-72.52-73.435l-0.798-0.703-52.838-49.562v-3.686h178.586z" />
<glyph unicode="&#xe90d;" glyph-name="field-calendar" horiz-adv-x="936" d="M786.968 872.229h-92.73v87.771h-99.177v-87.771h-252.901v87.771h-99.177v-87.771h-94.218c-82.161 0-148.765-66.604-148.765-148.765v0-638.698c0-82.161 66.604-148.765 148.765-148.765v0h638.202c82.161 0 148.765 66.604 148.765 148.765v0 638.698c0 82.161-66.604 148.765-148.765 148.765v0zM836.556 99.642c0-27.387-22.201-49.588-49.588-49.588v0h-638.202c-27.387 0-49.588 22.201-49.588 49.588v0 495.884h737.379z" />
<glyph unicode="&#xe90e;" glyph-name="field-check" horiz-adv-x="1351" d="M530.57-64c-26.513 0.273-50.193 12.172-66.223 30.832l-0.099 0.118-442.142 504.926c-16.933 16.139-27.462 38.866-27.462 64.052 0 48.838 39.591 88.428 88.428 88.428 29.384 0 55.421-14.332 71.501-36.387l0.175-0.252 375.82-427.993 665.865 769.326c15.636 26.351 43.94 43.739 76.305 43.739 48.838 0 88.428-39.591 88.428-88.428 0-28.554-13.533-53.946-34.536-70.114l-0.208-0.154-733.955-847.143c-16.129-18.778-39.808-30.677-66.274-30.95h-0.047z" />
<glyph unicode="&#xe90f;" glyph-name="field-dropdown" horiz-adv-x="1786" d="M893.221-64c-0.225-0.001-0.49-0.002-0.756-0.002-35.926 0-68.469 14.486-92.105 37.936l-762.434 762.434c-23.763 23.763-38.461 56.592-38.461 92.853 0 72.523 58.791 131.314 131.314 131.314 36.261 0 69.090-14.698 92.853-38.461v0l669.589-670.897 676.128 670.897c23.763 23.763 56.592 38.461 92.853 38.461 72.523 0 131.314-58.791 131.314-131.314 0-36.261-14.698-69.090-38.461-92.853v0l-768.981-762.442c-23.628-23.442-56.171-37.928-92.097-37.928-0.266 0-0.532 0.001-0.797 0.002h0.041z" />
<glyph unicode="&#xe910;" glyph-name="field-dropup" horiz-adv-x="1786" d="M1655.663-64c-33.815 1.577-64.039 15.766-86.32 37.931l0.006-0.005-676.128 670.897-669.589-670.897c-23.763-23.763-56.592-38.461-92.853-38.461-72.523 0-131.314 58.791-131.314 131.314 0 36.261 14.698 69.090 38.461 92.853l762.442 762.442c23.703 23.893 56.551 38.684 92.853 38.684s69.15-14.791 92.845-38.676l0.008-0.009 762.442-762.442c23.893-23.703 38.684-56.551 38.684-92.853s-14.791-69.15-38.676-92.845l-0.009-0.008c-23.628-23.442-56.171-37.928-92.097-37.928-0.266 0-0.532 0.001-0.797 0.002h0.041z" />
<glyph unicode="&#xe911;" glyph-name="field-search" horiz-adv-x="977" d="M442.77 74.46c-244.535 0-442.77 198.235-442.77 442.77s198.235 442.77 442.77 442.77c244.535 0 442.77-198.235 442.77-442.77v0c-0.214-244.449-198.321-442.557-442.75-442.77h-0.021zM442.77 847.431c-182.365 0-330.202-147.836-330.202-330.202s147.836-330.202 330.202-330.202c182.365 0 330.202 147.836 330.202 330.202v0c-0.213 182.279-147.922 329.988-330.181 330.202h-0.021zM920.437-64c-15.529 0.058-29.577 6.355-39.776 16.512l0.002-0.002-242.773 242.023c-10.262 10.141-16.617 24.215-16.617 39.774s6.355 29.633 16.612 39.769l0.005 0.005c10.224 10.081 24.272 16.307 39.774 16.307s29.551-6.226 39.781-16.314l-0.007 0.006 241.647-242.023c10.171-10.183 16.461-24.244 16.461-39.774 0-31.068-25.171-56.256-56.232-56.284h-0.003z" />
<glyph unicode="&#xe912;" glyph-name="menubar-customer" horiz-adv-x="917" d="M441.993 374.578c-149.795 7.105-268.554 130.28-268.554 281.193 0 4.051 0.086 8.081 0.255 12.090l-0.019-0.572c-0.15 3.436-0.236 7.467-0.236 11.518 0 150.913 118.758 274.088 267.918 281.169l0.636 0.024c149.795-7.105 268.554-130.28 268.554-281.193 0-4.051-0.086-8.081-0.255-12.090l0.019 0.572c0.15-3.436 0.236-7.467 0.236-11.518 0-150.913-118.758-274.088-267.918-281.169l-0.636-0.024zM441.993 862.43c-95.951-7.158-171.089-86.767-171.089-183.926 0-3.945 0.124-7.862 0.368-11.746l-0.027 0.531c-0.217-3.352-0.341-7.269-0.341-11.214 0-97.159 75.138-176.768 170.476-183.889l0.613-0.037c95.951 7.158 171.089 86.767 171.089 183.926 0 3.945-0.124 7.862-0.368 11.746l0.027-0.531c0.217 3.352 0.341 7.269 0.341 11.214 0 97.159-75.138 176.768-170.476 183.889l-0.613 0.037zM852.276-64.488h-777.147c-52.2 0-75.129 68.299-75.129 94.155v134.159c0 165.382 201.483 292.711 458.58 292.711s458.58-129.281 458.58-292.711v-134.159c0-57.079-25.368-94.155-64.884-94.155zM97.57 33.082h722.020v130.744c0 106.839-165.382 195.141-361.010 195.141s-361.010-88.301-361.010-195.141z" />
<glyph unicode="&#xe913;" glyph-name="menubar-dashboard" d="M512 960c-0.033 0-0.072 0-0.111 0-282.77 0-512-229.23-512-512s229.23-512 512-512c141.305 0 269.24 57.243 361.882 149.804l-0.003-0.003c2.316 1.261 4.293 2.548 6.16 3.97l-0.116-0.085c2.181 2.766 4.188 5.877 5.891 9.172l0.153 0.326c85.687 91.184 138.331 214.285 138.331 349.681 0 282.293-228.844 511.137-511.137 511.137-0.369 0-0.738 0-1.107-0.001h0.058zM543.946 873.659c209.601-16.311 375.676-182.386 391.895-390.523l0.092-1.463h-70.368c-16.807 170.067-151.347 304.014-320.209 319.786l-1.41 0.106zM780.951 449.727c0-148.538-120.414-268.951-268.951-268.951s-268.951 120.414-268.951 268.951c0 148.538 120.414 268.951 268.951 268.951v0c148.592-0.244 268.954-120.757 268.954-269.382 0-0.456-0.001-0.911-0.003-1.366v0.071zM512 24.067c-229.323 7.356-412.427 195.022-412.427 425.454 0 211.207 153.826 386.486 355.555 419.914l2.478 0.339v-71.231c-171.107-27.373-300.282-173.92-300.282-350.638 0-195.984 158.876-354.86 354.86-354.86 85.175 0 163.342 30.009 224.504 80.030l-0.633-0.502 50.078-50.078c-73.266-62.278-168.958-100.156-273.497-100.156-0.223 0-0.446 0-0.669 0.001h0.035zM846.138 182.934l-50.509 50.509c34.362 44.647 58.389 98.971 67.529 158.209l0.248 1.953h71.231c-10.339-80.711-42.024-152.555-89.152-211.516l0.653 0.845z" />
<glyph unicode="&#xe914;" glyph-name="menubar-purchase" horiz-adv-x="1097" d="M474.274 88.63h-425.984c-1.252-0.109-2.708-0.17-4.179-0.17-12.956 0-24.791 4.802-33.821 12.724l0.058-0.050c-6.413 6.593-10.367 15.606-10.367 25.542 0 0.418 0.007 0.835 0.021 1.25l-0.002-0.060c0 11.21 5.174 37.942 48.721 37.942h52.601c0 208.68 0 417.361 0 625.61-0.034 0.757-0.053 1.645-0.053 2.538 0 16.694 6.777 31.805 17.73 42.732l0.001 0.001c31.475 34.493 62.949 69.416 93.992 104.771 9.711 11.423 24.092 18.623 40.155 18.623 1.042 0 2.076-0.030 3.103-0.090l-0.142 0.007h586.375c0.398 0.011 0.866 0.017 1.336 0.017 16.809 0 31.821-7.695 41.705-19.755l0.076-0.095c30.181-34.493 61.656-69.416 93.13-103.909 10.668-10.879 17.253-25.796 17.253-42.251 0-0.304-0.002-0.608-0.007-0.911l0.001 0.046v-625.179h52.601c1.984 0.372 4.267 0.585 6.6 0.585 7.115 0 13.768-1.981 19.436-5.422l-0.167 0.094c9.738-6.122 17.137-15.193 21.015-25.946l0.112-0.355v-6.899c0.082-0.903 0.129-1.953 0.129-3.014 0-8.938-3.317-17.101-8.786-23.326l0.034 0.040c-6.243-6.696-14.817-11.149-24.422-12.061l-0.154-0.012h-434.176v23.283c0.215 1.618 0.338 3.49 0.338 5.389s-0.123 3.771-0.361 5.606l0.023-0.217c0.328 2.975 0.515 6.424 0.515 9.917s-0.187 6.942-0.552 10.338l0.037-0.421-3.018 24.145h291.894v593.273h-216.872v-140.989c0.080-0.985 0.126-2.133 0.126-3.291 0-14.672-7.328-27.632-18.524-35.42l-0.141-0.093c-6.184-3.632-13.62-5.776-21.558-5.776s-15.374 2.145-21.761 5.887l0.203-0.11c-30.181 15.091-60.362 30.612-90.112 46.565l-78.040-43.116-9.485-4.743c-6.694-4.486-14.931-7.159-23.793-7.159-7.045 0-13.695 1.69-19.567 4.685l0.244-0.113c-11.619 7.846-19.157 20.966-19.157 35.846 0 2.568 0.225 5.084 0.655 7.529l-0.038-0.259v139.695h-219.891v-595.429h294.912v-25.869c0-5.174 0-10.348 0-15.522s0-10.779 0-15.091zM1058.924 131.746v0zM546.708 632.32v0zM551.882 632.32v0zM474.274 762.099v-82.351c16.384 8.623 32.337 16.815 48.29 25.869 7.365 4.573 16.301 7.284 25.869 7.284s18.505-2.711 26.081-7.406l-0.212 0.122 46.565-24.576v81.058zM382.006 840.569h14.228c2.657-0.436 5.719-0.685 8.839-0.685s6.182 0.249 9.167 0.729l-0.328-0.043c3.050 4.224 5.666 9.063 7.618 14.229l0.143 0.43c2.156 4.312 4.312 9.054 6.899 13.366v0l8.192 14.228c-59.069 0-117.275 0-175.050 0-9.917-12.935-21.989-26.732-34.061-40.098v0zM680.798 840.569v0zM659.672 883.685c8.192-14.228 15.953-28.456 23.714-43.116h187.554l-36.648 40.96zM501.005 840.569h93.561c-7.761 14.228-15.953 28.025-23.714 43.116h-45.703c-5.605-10.348-11.21-20.696-17.246-31.043zM446.248 856.953l11.21-6.036zM520.839 882.823v0zM566.541 889.721v0zM550.589-64c-0.129-0.002-0.281-0.003-0.434-0.003-17.947 0-32.524 14.428-32.765 32.317v410.916l-73.297-74.59c-5.85-5.843-13.929-9.457-22.851-9.457s-17.001 3.614-22.852 9.457v0c-5.843 5.85-9.457 13.929-9.457 22.851s3.614 17.001 9.457 22.852v0l129.347 129.347c5.837 6.221 14.11 10.097 23.288 10.097 17.621 0 31.906-14.285 31.906-31.906 0-0.215-0.002-0.429-0.006-0.643l0.001 0.032v-488.933c0-17.859-14.478-32.337-32.337-32.337v0zM684.248 297.31c-0.001 0-0.003 0-0.004 0-9.357 0-17.787 3.975-23.691 10.328l-0.018 0.020-118.568 129.347c-5.742 5.896-9.283 13.96-9.283 22.851s3.541 16.955 9.29 22.859l-0.007-0.007c5.724 5.228 13.375 8.43 21.775 8.43 9.471 0 17.991-4.072 23.905-10.56l0.023-0.026 118.568-129.347c5.346-5.752 8.627-13.487 8.627-21.989 0-17.859-14.478-32.337-32.337-32.337-0.001 0-0.003 0-0.004 0v0z" />
<glyph unicode="&#xe915;" glyph-name="menubar-report" horiz-adv-x="1103" d="M274.779 640.636c-87.696 0.823-158.47 72.105-158.47 159.918 0 88.324 71.601 159.924 159.924 159.924s159.924-71.601 159.924-159.924c0-0.168 0-0.336-0.001-0.504v0.026c0-0.004 0-0.008 0-0.012 0-88.056-71.384-159.44-159.44-159.44-0.682 0-1.362 0.004-2.042 0.013l0.103-0.001zM274.779 863.076c-34.163-0.813-61.547-28.701-61.547-62.984 0-34.794 28.206-63 63-63 34.788 0 62.991 28.197 63 62.983v0.001c0 0.005 0 0.011 0 0.017 0 34.794-28.206 63-63 63-0.511 0-1.021-0.006-1.529-0.018l0.075 0.001zM564.097 294.618c-88.324 0-159.924 71.601-159.924 159.924s71.601 159.924 159.924 159.924c88.324 0 159.924-71.601 159.924-159.924v0c0-88.324-71.601-159.924-159.924-159.924v0zM564.097 517.058c-34.793-0.001-62.999-28.207-62.999-63s28.206-63 63-63c34.794 0 63 28.206 63 63 0 0.17-0.001 0.341-0.002 0.511v-0.026c-0.275 34.585-28.375 62.516-62.999 62.516-0.001 0-0.001 0-0.002 0v0zM853.414-64c-88.324 0-159.924 71.601-159.924 159.924s71.601 159.924 159.924 159.924c88.324 0 159.924-71.601 159.924-159.924v0c0-88.324-71.601-159.924-159.924-159.924v0zM853.414 158.925c-34.794 0-63-28.206-63-63s28.206-63 63-63c34.794 0 63 28.206 63 63v0c0 34.794-28.206 63-63 63v0zM1054.531 751.614h-678.467c-26.765 0-48.462 21.697-48.462 48.462s21.697 48.462 48.462 48.462v0h678.467c26.765 0 48.462-21.697 48.462-48.462s-21.697-48.462-48.462-48.462v0zM177.371 751.614h-128.909c-26.765 0-48.462 21.697-48.462 48.462s21.697 48.462 48.462 48.462v0h128.909c26.765 0 48.462-21.697 48.462-48.462s-21.697-48.462-48.462-48.462v0zM1054.531 406.080h-383.818c-26.765 0-48.462 21.697-48.462 48.462s21.697 48.462 48.462 48.462v0h383.818c26.765 0 48.462-21.697 48.462-48.462s-21.697-48.462-48.462-48.462v0zM463.296 406.080h-414.834c-26.765 0-48.462 21.697-48.462 48.462s21.697 48.462 48.462 48.462v0h414.834c26.765 0 48.462-21.697 48.462-48.462s-21.697-48.462-48.462-48.462v0zM1054.531 47.462h-100.801c-26.765 0-48.462 21.697-48.462 48.462s21.697 48.462 48.462 48.462v0h100.801c26.765 0 48.462-21.697 48.462-48.462s-21.697-48.462-48.462-48.462v0zM743.406 47.462h-694.944c-26.765 0-48.462 21.697-48.462 48.462s21.697 48.462 48.462 48.462v0h694.944c26.765 0 48.462-21.697 48.462-48.462s-21.697-48.462-48.462-48.462v0z" />
<glyph unicode="&#xe916;" glyph-name="menubar-salesorder" horiz-adv-x="890" d="M845.913 776.57h-178.087c-20.662 105.6-112.458 184.189-222.609 184.189s-201.946-78.589-222.374-182.755l-0.234-1.434h-178.087c-24.589 0-44.522-19.933-44.522-44.522v0-751.527c0-24.589 19.933-44.522 44.522-44.522v0h801.391c24.589 0 44.522 19.933 44.522 44.522v0 751.527c0 24.589-19.933 44.522-44.522 44.522v0zM451.896 870.957c38.002-1.522 71.801-18.336 95.627-44.416l0.095-0.106c13.586-13.715 24.225-30.374 30.874-48.932l0.291-0.932h-264.459c18.787 55.391 70.317 94.543 130.992 94.543 2.315 0 4.616-0.057 6.903-0.17l-0.322 0.013zM801.391 25.043h-712.348v662.483h128.668v-68.563c0-24.589 19.933-44.522 44.522-44.522s44.522 19.933 44.522 44.522v0 68.563h276.925v-68.563c0-24.589 19.933-44.522 44.522-44.522s44.522 19.933 44.522 44.522v0 68.563h128.668z" />
<glyph unicode="&#xe917;" glyph-name="menubar-stock" horiz-adv-x="1286" d="M1231.568-64h-1172.895c-1.647-0.157-3.561-0.246-5.495-0.246-15.523 0-29.701 5.756-40.516 15.251l0.069-0.060c-7.897 8.075-12.77 19.137-12.77 31.337 0 0.659 0.014 1.315 0.042 1.967l-0.003-0.093c0 14.391 6.089 47.049 59.226 47.049h59.226v728.977c-0.047 0.986-0.073 2.142-0.073 3.305 0 20.244 8.050 38.608 21.124 52.065l-0.017-0.018c37.085 39.853 74.171 80.813 110.703 122.326 11.839 13.635 29.201 22.207 48.565 22.207 1.024 0 2.043-0.024 3.055-0.071l-0.143 0.005h685.803c0.272 0.004 0.593 0.006 0.915 0.006 20.749 0 39.295-9.436 51.58-24.25l0.089-0.111c35.425-39.853 71.957-80.813 110.703-121.219 13.052-13.599 21.088-32.098 21.088-52.474 0-1.012-0.020-2.019-0.059-3.021l0.004 0.144q0-363.658 0-728.424h58.119c2.229 0.353 4.8 0.555 7.417 0.555 9.532 0 18.44-2.677 26.010-7.321l-0.217 0.124c11.13-7.651 19.605-18.448 24.212-31.104l0.142-0.446c0.844-3.274 1.329-7.032 1.329-10.903 0-21.814-15.389-40.034-35.903-44.396l-0.297-0.053zM214.763 32.865h858.499v691.892h-249.635v-162.733c0.213-1.7 0.334-3.667 0.334-5.663 0-26.596-21.56-48.156-48.156-48.156-10.51 0-20.234 3.367-28.152 9.081l0.142-0.097-103.507 55.351-90.776-49.263-10.517-6.089c-7.939-4.662-17.486-7.416-27.676-7.416s-19.737 2.754-27.937 7.557l0.261-0.141c-13.953 10.176-22.917 26.468-22.917 44.853 0 1.747 0.081 3.476 0.239 5.182l-0.016-0.219v157.198h-250.188zM640.969 572.541v0zM649.271 572.541v0zM560.709 722.543v-88.562c17.712 8.856 35.425 18.266 52.584 28.229 9.009 5.477 19.901 8.719 31.55 8.719s22.542-3.242 31.823-8.873l-0.273 0.154 50.923-26.569v88.009zM804.809 816.64v0zM272.329 816.64h193.73c2.826-0.382 6.092-0.599 9.41-0.599s6.584 0.218 9.786 0.64l-0.376-0.041c3.114 4.617 5.904 9.905 8.107 15.489l0.196 0.563 8.303 16.605 7.196 12.731h-200.372c-11.758-15.505-23.544-29.221-36.097-42.19l0.118 0.123zM799.274 816.64v0zM778.794 861.475q13.284-22.694 24.908-44.835h211.996l-39.299 43.728h-153.323zM593.366 817.194h101.293l-24.908 43.728h-51.477l-18.819-33.764zM612.739 861.475v0zM622.149 868.67v0zM664.216 868.67v0z" />
</font>
</defs>
</svg>
